<?xml version="1.0" standalone="no"?>
<!DOCTYPE svg PUBLIC "-//W3C//DTD SVG 20010904//EN"
 "http://www.w3.org/TR/2001/REC-SVG-20010904/DTD/svg10.dtd">
<svg version="1.0" xmlns="http://www.w3.org/2000/svg"
 width="250.000000pt" height="250.000000pt" viewBox="0 0 250.000000 250.000000"
 preserveAspectRatio="xMidYMid meet">
<metadata>
Created by potrace 1.14, written by Peter Selinger 2001-2017
</metadata>
<g transform="translate(0.000000,250.000000) scale(0.100000,-0.100000)"
fill="#000000" stroke="none">
<path d="M1038 2419 c-253 -51 -455 -158 -632 -335 -84 -86 -186 -230 -234
-334 -32 -69 -79 -213 -87 -264 -3 -17 -10 -56 -15 -86 -9 -57 -6 -302 5 -355
55 -266 160 -466 337 -644 170 -170 376 -279 625 -331 113 -23 341 -21 458 4
483 105 850 483 939 969 14 79 15 324 1 397 -85 452 -385 799 -816 943 -42 14
-92 28 -110 31 -19 3 -55 9 -81 14 -80 16 -295 11 -390 -9z"/>
</g>
</svg>
